<svg width="36" height="36" viewBox="0 0 36 36" fill="none" xmlns="http://www.w3.org/2000/svg">
<circle cx="18" cy="18" r="18" fill="#AD8D73"/>
<path d="M24.4167 9.75H11.5833C10.5708 9.75 9.75 10.5708 9.75 11.5833V24.4167C9.75 25.4292 10.5708 26.25 11.5833 26.25H24.4167C25.4292 26.25 26.25 25.4292 26.25 24.4167V11.5833C26.25 10.5708 25.4292 9.75 24.4167 9.75Z" stroke="white" stroke-width="1.5" stroke-linecap="round" stroke-linejoin="round"/>
<path d="M14.7917 16.1666C15.5511 16.1666 16.1667 15.551 16.1667 14.7916C16.1667 14.0322 15.5511 13.4166 14.7917 13.4166C14.0324 13.4166 13.4167 14.0322 13.4167 14.7916C13.4167 15.551 14.0324 16.1666 14.7917 16.1666Z" stroke="white" stroke-width="1.5" stroke-linecap="round" stroke-linejoin="round"/>
<path d="M26.2499 20.75L21.6666 16.1666L11.5833 26.25" stroke="white" stroke-width="1.5" stroke-linecap="round" stroke-linejoin="round"/>
</svg>
